<?xml version="1.0" encoding="UTF-8"?>
<svg xmlns="http://www.w3.org/2000/svg" xmlns:xlink="http://www.w3.org/1999/xlink" width="1024px" height="1024px" viewBox="22 20 20 14" preserveAspectRatio="xMidYMid meet" version="1.1">
<g id="surface1">
<path style=" stroke:none;fill-rule:nonzero;fill:rgb(99.215686%,85.09804%,45.490196%);fill-opacity:1;" d="M 27.371094 25.0625 C 27.320312 25.085938 27.296875 25.128906 27.273438 25.160156 C 27.265625 25.167969 27.199219 25.230469 27.070312 25.347656 C 26.910156 25.496094 26.679688 25.660156 26.605469 25.714844 C 26.277344 25.949219 26.242188 25.949219 25.96875 26.136719 C 25.832031 26.234375 25.601562 26.402344 25.34375 26.625 C 25.097656 26.835938 24.960938 26.953125 24.796875 27.15625 C 24.761719 27.207031 24.59375 27.417969 24.464844 27.726562 C 24.40625 27.867188 24.390625 27.945312 24.386719 28.03125 C 24.378906 28.214844 24.445312 28.355469 24.476562 28.417969 C 24.527344 28.523438 24.566406 28.601562 24.660156 28.648438 C 24.742188 28.695312 24.867188 28.726562 24.917969 28.675781 C 24.941406 28.652344 24.9375 28.628906 24.949219 28.582031 C 24.960938 28.519531 24.992188 28.464844 25.054688 28.359375 C 25.09375 28.296875 25.15625 28.195312 25.257812 28.066406 C 25.4375 27.855469 25.636719 27.703125 25.769531 27.605469 C 25.917969 27.492188 26.109375 27.359375 26.496094 27.117188 C 26.941406 26.835938 27.015625 26.8125 27.222656 26.648438 C 27.585938 26.363281 27.675781 26.203125 27.722656 26.09375 C 27.816406 25.867188 27.800781 25.664062 27.796875 25.617188 C 27.78125 25.445312 27.726562 25.332031 27.6875 25.261719 C 27.601562 25.09375 27.53125 25.066406 27.507812 25.058594 C 27.492188 25.054688 27.433594 25.039062 27.371094 25.0625 "/>
<path style=" stroke:none;fill-rule:nonzero;fill:rgb(99.215686%,85.09804%,45.490196%);fill-opacity:1;" d="M 27.542969 26.855469 C 27.457031 26.9375 27.363281 27.003906 27.273438 27.078125 C 27.066406 27.25 26.941406 27.3125 26.59375 27.546875 C 26.074219 27.894531 25.960938 27.980469 25.855469 28.066406 C 25.558594 28.3125 25.4375 28.460938 25.363281 28.566406 C 25.207031 28.785156 25.148438 28.902344 25.125 28.988281 C 25.066406 29.199219 25.097656 29.367188 25.109375 29.410156 C 25.121094 29.476562 25.152344 29.582031 25.230469 29.6875 C 25.265625 29.738281 25.3125 29.800781 25.386719 29.824219 C 25.398438 29.828125 25.429688 29.832031 25.496094 29.839844 C 25.539062 29.84375 25.554688 29.847656 25.574219 29.835938 C 25.601562 29.820312 25.605469 29.785156 25.609375 29.773438 C 25.628906 29.6875 25.695312 29.617188 25.730469 29.535156 C 25.789062 29.40625 25.964844 29.285156 26.296875 29.074219 C 26.507812 28.941406 26.613281 28.875 26.789062 28.773438 C 27.085938 28.597656 27.128906 28.585938 27.371094 28.4375 C 27.613281 28.292969 27.734375 28.21875 27.867188 28.105469 C 28.046875 27.953125 28.191406 27.828125 28.261719 27.613281 C 28.28125 27.5625 28.320312 27.429688 28.300781 27.265625 C 28.277344 27.117188 28.203125 27.007812 28.058594 26.789062 C 27.933594 26.609375 27.898438 26.597656 27.875 26.59375 C 27.785156 26.582031 27.730469 26.683594 27.542969 26.855469 "/>
<path style=" stroke:none;fill-rule:nonzero;fill:rgb(99.215686%,85.09804%,45.490196%);fill-opacity:1;" d="M 29.003906 28.394531 C 28.980469 28.355469 28.921875 28.253906 28.832031 28.109375 C 28.832031 28.109375 28.769531 28.007812 28.628906 27.855469 C 28.609375 27.835938 28.574219 27.796875 28.546875 27.804688 C 28.527344 27.8125 28.527344 27.847656 28.523438 27.878906 C 28.511719 27.921875 28.488281 27.964844 28.433594 28.050781 C 28.316406 28.238281 28.15625 28.386719 28.136719 28.40625 C 28.097656 28.441406 28.046875 28.488281 27.945312 28.5625 C 27.726562 28.722656 27.589844 28.792969 27.230469 29.007812 C 27.007812 29.140625 27.054688 29.117188 26.890625 29.210938 C 26.558594 29.40625 26.496094 29.425781 26.339844 29.539062 C 26.246094 29.609375 26.121094 29.707031 25.988281 29.863281 C 25.890625 29.988281 25.796875 30.101562 25.757812 30.28125 C 25.746094 30.339844 25.71875 30.492188 25.785156 30.664062 C 25.835938 30.800781 25.917969 30.878906 25.957031 30.914062 C 26.007812 30.960938 26.152344 31.09375 26.253906 31.054688 C 26.292969 31.035156 26.300781 31.003906 26.347656 30.925781 C 26.347656 30.925781 26.359375 30.902344 26.523438 30.691406 C 26.640625 30.535156 26.914062 30.378906 27.46875 30.144531 C 27.824219 29.992188 27.796875 30.019531 27.984375 29.929688 C 28.363281 29.746094 28.578125 29.578125 28.65625 29.511719 C 28.859375 29.347656 29 29.226562 29.082031 29.015625 C 29.113281 28.933594 29.167969 28.78125 29.117188 28.613281 C 29.109375 28.582031 29.074219 28.519531 29.003906 28.394531 "/>
<path style=" stroke:none;fill-rule:nonzero;fill:rgb(99.215686%,85.09804%,45.490196%);fill-opacity:1;" d="M 29.414062 29.125 C 29.355469 29.128906 29.347656 29.25 29.257812 29.414062 C 29.203125 29.519531 29.148438 29.578125 29.046875 29.6875 C 28.96875 29.773438 28.839844 29.894531 28.601562 30.050781 C 28.398438 30.1875 28.234375 30.265625 27.917969 30.414062 C 27.761719 30.488281 27.722656 30.503906 27.273438 30.714844 C 27.039062 30.820312 26.921875 30.878906 26.78125 30.992188 C 26.660156 31.089844 26.5625 31.175781 26.496094 31.324219 C 26.378906 31.605469 26.496094 31.867188 26.507812 31.902344 C 26.582031 32.058594 26.691406 32.148438 26.765625 32.207031 C 27.027344 32.410156 27.316406 32.425781 27.402344 32.429688 C 27.628906 32.4375 27.847656 32.378906 27.933594 32.351562 C 28.050781 32.316406 28.09375 32.289062 28.203125 32.277344 C 28.261719 32.273438 28.421875 32.261719 28.589844 32.351562 C 28.6875 32.402344 28.746094 32.46875 28.773438 32.496094 C 28.792969 32.519531 28.847656 32.585938 28.917969 32.78125 C 28.972656 32.929688 28.960938 32.945312 28.996094 33.042969 C 29.054688 33.199219 29.136719 33.296875 29.246094 33.429688 C 29.300781 33.496094 29.402344 33.621094 29.554688 33.742188 C 29.820312 33.949219 30.203125 34.164062 30.277344 34.082031 C 30.300781 34.054688 30.273438 34.015625 30.257812 33.921875 C 30.226562 33.710938 30.304688 33.539062 30.363281 33.40625 C 30.417969 33.28125 30.457031 33.257812 30.726562 32.929688 C 30.9375 32.667969 31.046875 32.539062 31.070312 32.472656 C 31.1875 32.1875 31.105469 31.90625 31.054688 31.71875 C 31.03125 31.640625 30.921875 31.4375 30.703125 31.035156 C 30.621094 30.882812 30.417969 30.515625 30.363281 30.539062 C 30.355469 30.539062 30.347656 30.554688 30.335938 30.582031 C 30.3125 30.628906 30.308594 30.671875 30.308594 30.679688 C 30.300781 30.734375 30.261719 30.785156 30.183594 30.886719 C 30.15625 30.917969 30.097656 30.992188 29.988281 31.09375 C 29.949219 31.132812 29.882812 31.199219 29.796875 31.265625 C 29.648438 31.378906 29.523438 31.441406 29.394531 31.5 C 29.257812 31.566406 29.085938 31.648438 28.835938 31.707031 C 28.59375 31.765625 28.410156 31.773438 28.207031 31.777344 C 27.949219 31.785156 27.796875 31.789062 27.59375 31.738281 C 27.351562 31.671875 27.109375 31.546875 27.121094 31.5 C 27.128906 31.484375 27.171875 31.484375 27.28125 31.484375 C 27.441406 31.484375 27.605469 31.476562 27.769531 31.480469 C 27.996094 31.484375 28.171875 31.460938 28.285156 31.441406 C 28.621094 31.394531 28.878906 31.296875 29.027344 31.238281 C 29.160156 31.179688 29.355469 31.097656 29.570312 30.9375 C 29.6875 30.847656 29.8125 30.75 29.921875 30.578125 C 29.984375 30.480469 30.070312 30.34375 30.066406 30.160156 C 30.0625 30.0625 30.035156 29.996094 30 29.90625 C 29.957031 29.792969 29.875 29.679688 29.714844 29.453125 C 29.714844 29.453125 29.675781 29.398438 29.582031 29.285156 C 29.457031 29.132812 29.433594 29.121094 29.414062 29.125 "/>
<path style=" stroke:none;fill-rule:nonzero;fill:rgb(99.215686%,85.09804%,45.490196%);fill-opacity:1;" d="M 26.777344 23.859375 C 26.722656 23.929688 26.691406 23.953125 26.3125 24.21875 C 25.914062 24.496094 25.636719 24.6875 25.542969 24.75 C 25.078125 25.078125 24.835938 25.246094 24.582031 25.480469 C 24.335938 25.703125 24.09375 25.957031 23.894531 26.304688 C 23.789062 26.488281 23.726562 26.640625 23.707031 26.820312 C 23.695312 26.941406 23.671875 27.195312 23.835938 27.394531 C 23.875 27.441406 23.953125 27.539062 24.082031 27.574219 C 24.113281 27.582031 24.175781 27.597656 24.214844 27.566406 C 24.253906 27.53125 24.246094 27.46875 24.246094 27.433594 C 24.242188 27.398438 24.25 27.328125 24.429688 27.066406 C 24.570312 26.859375 24.679688 26.695312 24.898438 26.472656 C 25.015625 26.355469 25.148438 26.234375 25.367188 26.066406 C 25.703125 25.804688 26.003906 25.613281 26.574219 25.246094 C 26.574219 25.246094 26.722656 25.152344 27.214844 24.75 C 27.285156 24.691406 27.375 24.617188 27.4375 24.492188 C 27.535156 24.304688 27.519531 24.117188 27.511719 24.035156 C 27.507812 24.007812 27.492188 23.867188 27.417969 23.714844 C 27.355469 23.585938 27.296875 23.550781 27.269531 23.535156 C 27.261719 23.53125 27.203125 23.503906 27.144531 23.503906 C 26.992188 23.507812 26.910156 23.699219 26.777344 23.859375 "/>
<path style=" stroke:none;fill-rule:nonzero;fill:rgb(99.215686%,85.09804%,45.490196%);fill-opacity:1;" d="M 23.6875 25.972656 C 23.667969 26.03125 23.648438 26.117188 23.597656 26.226562 C 23.585938 26.25 23.574219 26.273438 23.550781 26.289062 C 23.496094 26.324219 23.421875 26.296875 23.398438 26.285156 C 23.339844 26.261719 23.292969 26.21875 23.238281 26.136719 C 23.199219 26.078125 23.128906 25.96875 23.097656 25.8125 C 23.0625 25.652344 23.078125 25.441406 23.214844 25.144531 C 23.414062 24.71875 23.710938 24.460938 24.035156 24.1875 C 24.164062 24.074219 24.449219 23.835938 24.859375 23.597656 C 24.976562 23.527344 25.414062 23.300781 25.730469 23.117188 C 25.789062 23.082031 25.882812 23.027344 25.996094 22.941406 C 26.046875 22.898438 26.140625 22.828125 26.242188 22.71875 C 26.382812 22.574219 26.394531 22.515625 26.492188 22.484375 C 26.515625 22.472656 26.605469 22.441406 26.703125 22.476562 C 26.804688 22.515625 26.855469 22.59375 26.890625 22.644531 C 26.902344 22.667969 26.953125 22.753906 26.964844 22.878906 C 26.972656 23.015625 26.921875 23.121094 26.898438 23.171875 C 26.859375 23.25 26.8125 23.3125 26.683594 23.429688 C 26.503906 23.597656 26.355469 23.710938 26.335938 23.722656 C 26.113281 23.886719 25.941406 24.003906 25.804688 24.09375 C 25.367188 24.390625 25.25 24.464844 25.191406 24.507812 C 24.90625 24.703125 24.761719 24.800781 24.660156 24.882812 C 24.433594 25.0625 24.285156 25.207031 24.164062 25.328125 C 24.007812 25.484375 23.878906 25.625 23.78125 25.789062 C 23.730469 25.875 23.703125 25.917969 23.6875 25.972656 "/>
<path style=" stroke:none;fill-rule:nonzero;fill:rgb(99.215686%,85.09804%,45.490196%);fill-opacity:1;" d="M 28.730469 22.285156 C 28.570312 22.183594 28.492188 22.097656 28.480469 21.996094 C 28.464844 21.882812 28.53125 21.789062 28.566406 21.738281 C 28.660156 21.613281 28.796875 21.527344 29.175781 21.414062 C 29.375 21.359375 29.523438 21.3125 29.78125 21.273438 C 30.132812 21.214844 30.402344 21.214844 30.707031 21.210938 C 30.976562 21.207031 31.242188 21.207031 31.597656 21.246094 C 31.902344 21.285156 32.085938 21.332031 32.386719 21.410156 C 32.460938 21.429688 32.640625 21.476562 32.847656 21.597656 C 33.066406 21.722656 33.105469 21.8125 33.121094 21.863281 C 33.152344 21.980469 33.105469 22.085938 33.089844 22.117188 C 32.996094 22.308594 32.777344 22.386719 32.59375 22.441406 C 32.046875 22.609375 31.605469 22.652344 31.585938 22.652344 C 31.453125 22.667969 31.050781 22.699219 30.488281 22.683594 C 30.148438 22.675781 29.796875 22.648438 29.402344 22.566406 C 29.347656 22.554688 29.042969 22.492188 28.730469 22.285156 "/>
<path style=" stroke:none;fill-rule:nonzero;fill:rgb(99.215686%,85.09804%,45.490196%);fill-opacity:1;" d="M 28.34375 22.492188 C 28.523438 22.644531 28.820312 22.855469 29.226562 22.996094 C 29.496094 23.085938 29.714844 23.105469 30.152344 23.144531 C 30.5625 23.179688 31.066406 23.199219 31.640625 23.144531 C 31.898438 23.121094 32.144531 23.085938 32.425781 22.996094 C 32.640625 22.925781 32.78125 22.855469 32.867188 22.808594 C 33.078125 22.691406 33.214844 22.570312 33.257812 22.527344 C 33.257812 22.527344 33.269531 22.511719 33.273438 22.515625 C 33.28125 22.515625 33.273438 22.539062 33.273438 22.582031 C 33.273438 22.605469 33.277344 22.617188 33.277344 22.621094 C 33.277344 22.816406 33.398438 24.925781 33.183594 27.09375 C 33.183594 27.09375 33.015625 28.800781 32.710938 29.640625 C 32.691406 29.6875 32.488281 30.230469 32.46875 30.335938 C 32.464844 30.34375 32.460938 30.375 32.453125 30.375 C 32.449219 30.375 32.449219 30.324219 32.449219 30.296875 C 32.453125 30.210938 32.46875 30.144531 32.46875 30.140625 C 32.476562 30.113281 32.496094 29.960938 32.53125 29.65625 C 32.542969 29.535156 32.5625 29.332031 32.585938 28.917969 C 32.605469 28.535156 32.609375 28.28125 32.625 27.777344 C 32.644531 26.871094 32.644531 26.984375 32.648438 26.769531 C 32.65625 26.402344 32.648438 25.785156 32.640625 24.546875 C 32.628906 23.144531 32.621094 23.125 32.632812 23.097656 C 32.632812 23.089844 32.644531 23.066406 32.632812 23.050781 C 32.59375 23.007812 32.386719 23.125 32.351562 23.128906 C 32.351562 23.128906 32.347656 23.128906 32.34375 23.132812 C 32.335938 23.140625 32.34375 23.160156 32.34375 23.160156 C 32.355469 23.1875 32.261719 29.921875 32.273438 30.28125 C 32.277344 30.304688 32.28125 30.425781 32.265625 30.585938 C 32.253906 30.707031 32.242188 30.867188 32.175781 31.050781 C 32.125 31.1875 32.039062 31.34375 31.859375 31.648438 C 31.851562 31.664062 31.847656 31.667969 31.839844 31.683594 C 31.789062 31.773438 31.785156 31.789062 31.777344 31.789062 C 31.753906 31.789062 31.773438 31.636719 31.710938 31.457031 C 31.679688 31.367188 31.664062 31.378906 31.585938 31.191406 C 31.539062 31.082031 31.542969 31.074219 31.511719 31.019531 C 31.484375 30.96875 31.464844 30.945312 31.457031 30.898438 C 31.445312 30.835938 31.464844 30.785156 31.472656 30.769531 C 31.511719 30.652344 31.492188 30.511719 31.488281 30.355469 C 31.480469 29.988281 31.4375 23.59375 31.53125 23.320312 C 31.535156 23.316406 31.257812 23.359375 31.257812 23.359375 C 31.25 24.492188 31.28125 30.171875 31.28125 30.171875 C 31.28125 30.289062 31.28125 30.382812 31.28125 30.429688 L 31.289062 30.613281 L 30.410156 29.316406 L 30.382812 23.277344 L 30.097656 23.269531 L 30.171875 28.921875 L 29.292969 27.578125 L 29.292969 23.164062 L 28.972656 23.015625 L 29.046875 27.140625 L 28.394531 26.007812 Z M 28.34375 22.492188 "/>
<path style=" stroke:none;fill-rule:nonzero;fill:rgb(99.215686%,85.09804%,45.490196%);fill-opacity:1;" d="M 30.722656 34.355469 C 30.773438 34.433594 30.957031 34.648438 31.21875 34.933594 C 31.238281 34.945312 31.289062 34.980469 31.359375 34.976562 C 31.4375 34.976562 31.488281 34.9375 31.511719 34.917969 C 31.542969 34.894531 31.5625 34.871094 31.574219 34.851562 C 31.609375 34.804688 31.617188 34.777344 31.644531 34.722656 C 31.679688 34.65625 31.714844 34.613281 31.734375 34.589844 C 31.785156 34.527344 31.832031 34.488281 31.867188 34.460938 C 32.039062 34.332031 32.125 34.265625 32.195312 34.222656 C 32.527344 34.015625 32.796875 33.894531 32.796875 33.894531 C 33.203125 33.710938 33.585938 33.476562 33.984375 33.273438 C 35.507812 32.488281 35.484375 32.503906 35.523438 32.480469 C 36.003906 32.222656 36.554688 31.90625 37.152344 31.53125 C 37.296875 31.441406 38.332031 30.78125 38.867188 30.160156 C 39.082031 29.910156 39.207031 29.679688 39.25 29.59375 C 39.371094 29.359375 39.421875 29.175781 39.441406 29.097656 C 39.472656 28.972656 39.480469 28.882812 39.5 28.699219 C 39.5 28.691406 39.511719 28.558594 39.476562 28.398438 C 39.464844 28.339844 39.449219 28.292969 39.410156 28.273438 C 39.371094 28.253906 39.324219 28.269531 39.296875 28.28125 C 39.21875 28.308594 39.175781 28.359375 39.160156 28.375 C 39.089844 28.449219 39.066406 28.421875 38.84375 28.542969 C 38.660156 28.640625 38.640625 28.675781 38.503906 28.722656 C 38.335938 28.785156 38.289062 28.761719 38.265625 28.746094 C 38.21875 28.707031 38.21875 28.628906 38.21875 28.601562 C 38.214844 28.519531 38.253906 28.460938 38.265625 28.441406 C 38.3125 28.375 38.375 28.347656 38.40625 28.332031 C 38.527344 28.273438 38.636719 28.199219 38.757812 28.144531 C 39.253906 27.910156 39.101562 27.9375 39.28125 27.859375 C 39.3125 27.84375 39.382812 27.8125 39.429688 27.742188 C 39.445312 27.710938 39.453125 27.6875 39.464844 27.644531 C 39.492188 27.550781 39.496094 27.472656 39.5 27.453125 C 39.503906 27.371094 39.492188 27.292969 39.46875 27.140625 C 39.4375 26.933594 39.417969 26.867188 39.410156 26.84375 C 39.402344 26.808594 39.386719 26.769531 39.351562 26.6875 C 39.335938 26.644531 39.308594 26.578125 39.261719 26.511719 C 39.238281 26.480469 39.222656 26.464844 39.199219 26.457031 C 39.15625 26.441406 39.113281 26.464844 39.097656 26.472656 C 39.027344 26.511719 39 26.589844 38.984375 26.613281 C 38.867188 26.753906 38.816406 26.820312 38.742188 26.910156 C 38.484375 27.238281 38.523438 27.152344 38.398438 27.320312 C 38.339844 27.402344 38.265625 27.507812 38.132812 27.582031 C 38.066406 27.621094 38.019531 27.632812 37.972656 27.621094 C 37.898438 27.601562 37.863281 27.527344 37.847656 27.492188 C 37.835938 27.464844 37.804688 27.398438 37.828125 27.335938 C 37.84375 27.292969 37.878906 27.269531 37.886719 27.261719 C 38.007812 27.179688 38.066406 27.023438 38.546875 26.515625 C 38.546875 26.515625 38.699219 26.359375 38.867188 26.097656 C 38.886719 26.070312 38.925781 26.011719 38.933594 25.933594 C 38.941406 25.859375 38.925781 25.804688 38.902344 25.734375 C 38.832031 25.53125 38.746094 25.382812 38.738281 25.371094 C 38.710938 25.324219 38.636719 25.207031 38.519531 25.066406 C 38.480469 25.019531 38.351562 24.871094 38.195312 24.808594 C 38.171875 24.796875 38.105469 24.773438 38.082031 24.800781 C 38.066406 24.8125 38.070312 24.839844 38.070312 24.847656 C 38.085938 24.960938 38.027344 25.074219 38.007812 25.1875 C 37.972656 25.371094 37.886719 25.554688 37.734375 25.878906 C 37.65625 26.050781 37.667969 26.011719 37.589844 26.175781 C 37.523438 26.324219 37.429688 26.457031 37.367188 26.605469 C 37.359375 26.625 37.339844 26.667969 37.292969 26.703125 C 37.277344 26.714844 37.226562 26.75 37.15625 26.746094 C 37.148438 26.746094 37.039062 26.738281 36.992188 26.648438 C 36.96875 26.605469 36.972656 26.558594 36.972656 26.535156 C 36.980469 26.476562 37 26.4375 37.015625 26.414062 C 37.054688 26.339844 37.078125 26.253906 37.113281 26.175781 C 37.167969 26.0625 37.214844 25.941406 37.265625 25.824219 C 37.339844 25.65625 37.320312 25.6875 37.574219 25.039062 C 37.574219 25.039062 37.636719 24.878906 37.6875 24.605469 C 37.691406 24.566406 37.707031 24.492188 37.6875 24.40625 C 37.683594 24.390625 37.671875 24.339844 37.644531 24.285156 C 37.601562 24.199219 37.53125 24.121094 37.375 24.007812 C 37.28125 23.9375 37.152344 23.851562 36.972656 23.765625 C 36.753906 23.660156 36.652344 23.648438 36.5625 23.660156 C 36.46875 23.675781 36.441406 23.714844 36.433594 23.730469 C 36.402344 23.777344 36.421875 23.839844 36.425781 23.855469 C 36.449219 23.925781 36.417969 23.96875 36.378906 24.769531 C 36.378906 24.769531 36.328125 25.878906 36.140625 26.140625 C 36.101562 26.199219 36.046875 26.222656 36.046875 26.222656 C 35.984375 26.25 35.929688 26.242188 35.90625 26.238281 C 35.875 26.230469 35.835938 26.222656 35.808594 26.191406 C 35.800781 26.183594 35.78125 26.164062 35.777344 26.128906 C 35.773438 26.113281 35.777344 26.097656 35.777344 26.09375 C 35.816406 25.925781 35.8125 25.75 35.839844 25.582031 C 35.902344 25.242188 35.871094 25.097656 35.964844 24.457031 C 36.003906 24.191406 35.960938 23.914062 36.011719 23.648438 C 36.011719 23.636719 36.019531 23.597656 36.003906 23.554688 C 35.984375 23.507812 35.945312 23.488281 35.925781 23.476562 C 35.71875 23.359375 35.566406 23.332031 35.566406 23.332031 C 35.210938 23.273438 34.949219 23.320312 34.820312 23.351562 C 34.722656 23.375 34.628906 23.40625 34.570312 23.492188 C 34.539062 23.539062 34.53125 23.59375 34.527344 23.621094 C 34.515625 23.714844 34.546875 23.792969 34.554688 23.816406 C 34.722656 24.222656 34.878906 25.847656 34.769531 26.09375 C 34.746094 26.148438 34.703125 26.1875 34.703125 26.1875 C 34.6875 26.199219 34.609375 26.269531 34.515625 26.246094 C 34.425781 26.222656 34.390625 26.132812 34.382812 26.113281 C 34.355469 26.050781 34.363281 25.992188 34.363281 25.960938 C 34.371094 25.894531 34.359375 25.957031 34.332031 25.582031 C 34.316406 25.34375 34.320312 25.339844 34.308594 25.109375 C 34.285156 24.777344 34.257812 24.519531 34.242188 24.386719 C 34.222656 24.246094 34.226562 24.285156 34.21875 24.222656 C 34.195312 23.992188 34.1875 23.738281 34.101562 23.660156 C 34.078125 23.640625 34.050781 23.628906 34.050781 23.628906 C 34.023438 23.621094 34.011719 23.625 33.929688 23.625 C 33.894531 23.625 33.867188 23.625 33.828125 23.632812 C 33.804688 23.636719 33.789062 23.640625 33.777344 23.652344 C 33.765625 23.671875 33.773438 23.699219 33.773438 23.703125 C 33.800781 23.8125 33.789062 23.929688 33.792969 24.039062 C 33.804688 24.410156 33.789062 24.625 33.773438 25.054688 C 33.75 25.699219 33.765625 25.667969 33.742188 26.0625 C 33.722656 26.398438 33.695312 26.675781 33.675781 26.851562 C 33.695312 26.84375 33.726562 26.832031 33.765625 26.816406 C 33.847656 26.785156 33.910156 26.757812 33.917969 26.753906 C 34.003906 26.714844 34.351562 26.585938 34.613281 26.527344 C 35.003906 26.445312 35.363281 26.492188 35.570312 26.519531 C 35.832031 26.558594 36.476562 26.65625 37.089844 27.136719 C 37.425781 27.402344 37.617188 27.675781 37.6875 27.777344 C 37.761719 27.890625 37.902344 28.105469 37.992188 28.386719 C 38.167969 28.949219 38.035156 29.460938 37.949219 29.71875 C 37.976562 29.703125 38.019531 29.683594 38.070312 29.660156 C 38.195312 29.605469 38.292969 29.578125 38.464844 29.53125 C 38.617188 29.488281 38.710938 29.46875 38.742188 29.464844 C 38.796875 29.453125 38.847656 29.445312 38.882812 29.4375 C 38.878906 29.449219 38.878906 29.46875 38.871094 29.488281 C 38.863281 29.5 38.84375 29.558594 38.777344 29.609375 C 38.578125 29.769531 38.308594 29.859375 38.308594 29.859375 C 38.164062 29.910156 37.972656 29.984375 37.742188 30.109375 C 37.730469 30.132812 37.707031 30.164062 37.683594 30.203125 C 37.582031 30.355469 37.464844 30.488281 37.277344 30.664062 C 37.144531 30.792969 36.976562 30.949219 36.714844 31.128906 C 36.328125 31.398438 35.96875 31.554688 35.476562 31.761719 C 34.5625 32.140625 34.09375 32.335938 33.339844 32.601562 C 32.929688 32.742188 32.792969 32.78125 32.441406 32.917969 C 32.441406 32.917969 31.855469 33.144531 31.089844 33.644531 C 31.089844 33.644531 30.925781 33.75 30.785156 33.941406 C 30.773438 33.960938 30.722656 34.027344 30.699219 34.125 C 30.675781 34.203125 30.683594 34.25 30.6875 34.273438 C 30.691406 34.285156 30.699219 34.316406 30.722656 34.355469 "/>
<path style=" stroke:none;fill-rule:nonzero;fill:rgb(99.215686%,85.09804%,45.490196%);fill-opacity:1;" d="M 33.621094 27.457031 C 33.789062 27.332031 34.070312 27.152344 34.457031 27.046875 C 34.578125 27.011719 35.132812 26.867188 35.824219 27.050781 C 36.507812 27.234375 36.917969 27.628906 37.007812 27.722656 C 37.351562 28.070312 37.476562 28.40625 37.503906 28.476562 C 37.539062 28.578125 37.601562 28.757812 37.597656 28.996094 C 37.597656 29.160156 37.5625 29.300781 37.550781 29.351562 C 37.527344 29.441406 37.503906 29.515625 37.480469 29.566406 L 37.40625 29.71875 C 37.394531 29.664062 37.375 29.582031 37.347656 29.488281 C 37.308594 29.363281 37.234375 29.136719 37.054688 28.816406 C 36.886719 28.515625 36.753906 28.277344 36.492188 28.023438 C 36.363281 27.894531 36.179688 27.777344 35.8125 27.535156 C 35.8125 27.535156 35.554688 27.371094 35.335938 27.351562 C 35.332031 27.347656 35.292969 27.347656 35.285156 27.347656 C 35.28125 27.347656 35.28125 27.367188 35.285156 27.382812 C 35.292969 27.398438 35.316406 27.40625 35.324219 27.410156 C 35.414062 27.4375 35.480469 27.519531 35.566406 27.566406 C 35.699219 27.636719 35.957031 27.894531 36.15625 28.121094 C 36.472656 28.484375 36.660156 28.808594 36.703125 28.886719 C 36.914062 29.257812 37.015625 29.5625 37.042969 29.648438 C 37.09375 29.804688 37.125 29.941406 37.148438 30.046875 L 37.152344 30.097656 C 36.6875 30.519531 36.484375 30.707031 36.476562 30.714844 C 36.476562 30.714844 36.472656 30.71875 36.46875 30.722656 C 36.460938 30.726562 36.457031 30.730469 36.449219 30.730469 C 36.441406 30.734375 36.425781 30.738281 36.394531 30.734375 C 36.375 30.734375 36.371094 30.730469 36.367188 30.726562 C 36.363281 30.722656 36.367188 30.714844 36.367188 30.710938 C 36.371094 30.695312 36.371094 30.675781 36.371094 30.660156 C 36.410156 30.445312 36.300781 30.023438 36.300781 30.023438 C 36.1875 29.609375 36.132812 29.402344 36.074219 29.257812 C 36.003906 29.082031 35.859375 28.738281 35.558594 28.363281 C 35.558594 28.363281 35.148438 27.851562 34.726562 27.648438 C 34.667969 27.621094 34.546875 27.582031 34.5 27.554688 C 34.496094 27.550781 34.472656 27.542969 34.429688 27.527344 C 34.425781 27.527344 34.417969 27.523438 34.414062 27.527344 C 34.410156 27.53125 34.410156 27.539062 34.410156 27.554688 C 34.410156 27.566406 34.410156 27.570312 34.410156 27.570312 C 34.414062 27.59375 34.445312 27.613281 34.460938 27.625 C 34.484375 27.640625 34.503906 27.667969 34.527344 27.6875 C 34.59375 27.75 34.902344 28.050781 34.945312 28.097656 C 35.058594 28.210938 35.355469 28.550781 35.59375 29.035156 C 35.855469 29.578125 35.925781 30.054688 35.972656 30.394531 C 36.003906 30.609375 36.015625 30.792969 36.023438 30.917969 L 36.027344 30.972656 L 35.0625 31.445312 C 35.070312 31.421875 35.082031 31.378906 35.09375 31.328125 C 35.113281 31.199219 35.105469 31.097656 35.101562 31.0625 C 35.078125 30.765625 35.128906 30.507812 35.089844 29.992188 C 35.085938 29.957031 35.082031 29.929688 35.078125 29.890625 C 35.054688 29.71875 35.003906 29.59375 34.9375 29.441406 C 34.851562 29.234375 34.804688 29.125 34.71875 28.953125 C 34.613281 28.738281 34.558594 28.632812 34.488281 28.527344 C 34.457031 28.484375 34.335938 28.308594 34.128906 28.117188 C 34.082031 28.074219 34.039062 28.039062 34.007812 28.011719 L 33.921875 28 L 33.914062 28.027344 C 33.921875 28.039062 33.9375 28.058594 33.953125 28.082031 C 34.007812 28.164062 34.046875 28.226562 34.09375 28.304688 C 34.136719 28.382812 34.191406 28.480469 34.253906 28.597656 C 34.339844 28.789062 34.410156 28.960938 34.460938 29.101562 C 34.515625 29.253906 34.578125 29.425781 34.632812 29.65625 C 34.660156 29.761719 34.703125 29.941406 34.730469 30.179688 C 34.765625 30.519531 34.746094 30.785156 34.722656 31.105469 C 34.703125 31.308594 34.683594 31.476562 34.667969 31.585938 L 33.539062 32.039062 L 33.519531 32.039062 C 33.527344 32.019531 33.539062 31.996094 33.554688 31.964844 C 33.628906 31.789062 33.695312 31.617188 33.726562 31.535156 C 33.839844 31.226562 33.894531 30.90625 33.910156 30.832031 C 33.953125 30.570312 33.957031 30.367188 33.960938 30.230469 C 33.96875 29.964844 33.976562 29.734375 33.917969 29.441406 C 33.871094 29.21875 33.804688 29.042969 33.75 28.921875 L 33.703125 28.90625 L 33.675781 28.921875 C 33.675781 28.933594 33.675781 28.953125 33.675781 28.972656 C 33.675781 29.058594 33.683594 29.121094 33.6875 29.140625 C 33.703125 29.257812 33.703125 29.378906 33.714844 29.496094 C 33.730469 29.722656 33.699219 30.085938 33.65625 30.378906 C 33.589844 30.800781 33.492188 31.109375 33.421875 31.320312 C 33.347656 31.554688 33.234375 31.851562 33.074219 32.183594 C 32.847656 32.257812 32.601562 32.355469 32.34375 32.476562 C 32.058594 32.609375 31.808594 32.746094 31.589844 32.882812 C 31.625 32.839844 31.667969 32.785156 31.722656 32.71875 C 31.742188 32.691406 31.898438 32.488281 32.035156 32.292969 C 32.117188 32.175781 32.296875 31.921875 32.484375 31.582031 C 32.695312 31.195312 32.820312 30.878906 32.914062 30.632812 C 32.949219 30.542969 33.054688 30.261719 33.164062 29.882812 C 33.230469 29.65625 33.273438 29.464844 33.363281 29.078125 C 33.472656 28.605469 33.527344 28.359375 33.5625 28.097656 C 33.59375 27.839844 33.605469 27.628906 33.609375 27.488281 Z M 33.621094 27.457031 "/>
</g>
</svg>
